<svg width="68" height="68" viewBox="0 0 68 68" fill="none" xmlns="http://www.w3.org/2000/svg">
<path d="M25.5 2.83325V11.3333M42.5 2.83325V11.3333M25.5 56.6666V65.1666M42.5 56.6666V65.1666M56.6667 25.4999H65.1667M56.6667 39.6666H65.1667M2.83337 25.4999H11.3334M2.83337 39.6666H11.3334M17 11.3333H51C54.1297 11.3333 56.6667 13.8703 56.6667 16.9999V50.9999C56.6667 54.1295 54.1297 56.6666 51 56.6666H17C13.8704 56.6666 11.3334 54.1295 11.3334 50.9999V16.9999C11.3334 13.8703 13.8704 11.3333 17 11.3333ZM25.5 25.4999H42.5V42.4999H25.5V25.4999Z" stroke="#1E1E1E" stroke-width="6" stroke-linecap="round" stroke-linejoin="round"/>
</svg>
